<svg width="640" height="520" viewBox="0 0 640 520" fill="none" xmlns="http://www.w3.org/2000/svg">
  <rect width="640" height="520" rx="40" fill="#FFF7ED"/>
  <circle cx="518" cy="96" r="52" fill="#FCE0BF"/>
  <circle cx="132" cy="112" r="64" fill="#F8D5A5"/>
  <rect x="76" y="126" width="488" height="288" rx="34" fill="#FFFFFF"/>
  <rect x="112" y="162" width="176" height="216" rx="28" fill="#FEE6CE"/>
  <rect x="324" y="160" width="204" height="26" rx="13" fill="#F3D2AE"/>
  <rect x="324" y="206" width="180" height="22" rx="11" fill="#F8E7D3"/>
  <rect x="324" y="246" width="156" height="22" rx="11" fill="#F8E7D3"/>
  <rect x="324" y="286" width="188" height="22" rx="11" fill="#F8E7D3"/>
  <rect x="324" y="328" width="122" height="36" rx="18" fill="#DD6B20"/>
  <rect x="148" y="194" width="102" height="118" rx="22" fill="#FFFFFF"/>
  <rect x="166" y="214" width="66" height="78" rx="14" fill="#DD6B20"/>
  <path d="M408 364C408 336.386 430.386 314 458 314C485.614 314 508 336.386 508 364C508 391.614 485.614 414 458 414C430.386 414 408 391.614 408 364Z" fill="#FFF2E2"/>
  <path d="M436 370L452 354L464 366L486 344" stroke="#DD6B20" stroke-width="16" stroke-linecap="round" stroke-linejoin="round"/>
  <rect x="98" y="430" width="444" height="16" rx="8" fill="#EDC69B"/>
</svg>
